<svg width="18" height="20" viewBox="0 0 18 20" fill="none" xmlns="http://www.w3.org/2000/svg">
<path d="M11.6923 16C11.05 16 10.5048 15.776 10.0567 15.3279C9.60866 14.8798 9.38463 14.3346 9.38463 13.6923C9.38463 13.05 9.60866 12.5048 10.0567 12.0567C10.5048 11.6087 11.05 11.3846 11.6923 11.3846C12.3346 11.3846 12.8798 11.6087 13.3279 12.0567C13.7759 12.5048 14 13.05 14 13.6923C14 14.3346 13.7759 14.8798 13.3279 15.3279C12.8798 15.776 12.3346 16 11.6923 16ZM2.3077 19.5C1.80257 19.5 1.375 19.325 1.025 18.975C0.675 18.625 0.5 18.1974 0.5 17.6923V4.30772C0.5 3.80258 0.675 3.37502 1.025 3.02502C1.375 2.67502 1.80257 2.50002 2.3077 2.50002H3.69233V1.15384C3.69233 0.934627 3.76573 0.751618 3.91253 0.604818C4.05931 0.458035 4.24232 0.384644 4.46155 0.384644C4.68077 0.384644 4.86378 0.458035 5.01058 0.604818C5.15736 0.751618 5.23075 0.934627 5.23075 1.15384V2.50002H12.8077V1.13462C12.8077 0.921802 12.8794 0.743602 13.023 0.600019C13.1666 0.456435 13.3448 0.384644 13.5576 0.384644C13.7704 0.384644 13.9486 0.456435 14.0922 0.600019C14.2358 0.743602 14.3076 0.921802 14.3076 1.13462V2.50002H15.6923C16.1974 2.50002 16.625 2.67502 16.975 3.02502C17.325 3.37502 17.5 3.80258 17.5 4.30772V17.6923C17.5 18.1974 17.325 18.625 16.975 18.975C16.625 19.325 16.1974 19.5 15.6923 19.5H2.3077ZM2.3077 18H15.6923C15.782 18 15.8557 17.9711 15.9134 17.9134C15.9711 17.8557 16 17.782 16 17.6923V8.30772H1.99997V17.6923C1.99997 17.782 2.02883 17.8557 2.08653 17.9134C2.14423 17.9711 2.21795 18 2.3077 18ZM1.99997 6.80774H16V4.30772C16 4.21797 15.9711 4.14424 15.9134 4.08654C15.8557 4.02884 15.782 3.99999 15.6923 3.99999H2.3077C2.21795 3.99999 2.14423 4.02884 2.08653 4.08654C2.02883 4.14424 1.99997 4.21797 1.99997 4.30772V6.80774Z" fill="#1DA1F2"/>
</svg>
