<svg width="16" height="18" viewBox="0 0 16 18" fill="none" xmlns="http://www.w3.org/2000/svg">
<path d="M3.3077 17.5C2.80257 17.5 2.375 17.325 2.025 16.975C1.675 16.625 1.5 16.1974 1.5 15.6923V2.99999H1.25C1.03718 2.99999 0.858983 2.9282 0.7154 2.78462C0.5718 2.64103 0.5 2.46283 0.5 2.25002C0.5 2.0372 0.5718 1.859 0.7154 1.71542C0.858983 1.57182 1.03718 1.50002 1.25 1.50002H4.99997C4.99997 1.24875 5.08779 1.0385 5.26342 0.869267C5.43907 0.700034 5.65254 0.615417 5.90382 0.615417H10.0961C10.3474 0.615417 10.5609 0.700034 10.7365 0.869267C10.9122 1.0385 11 1.24875 11 1.50002H14.75C14.9628 1.50002 15.141 1.57182 15.2845 1.71542C15.4281 1.859 15.5 2.0372 15.5 2.25002C15.5 2.46283 15.4281 2.64103 15.2845 2.78462C15.141 2.9282 14.9628 2.99999 14.75 2.99999H14.5V15.6923C14.5 16.1974 14.325 16.625 13.975 16.975C13.625 17.325 13.1974 17.5 12.6922 17.5H3.3077ZM2.99997 2.99999V15.6923C2.99997 15.782 3.02883 15.8557 3.08652 15.9134C3.14423 15.9711 3.21795 16 3.3077 16H12.6922C12.782 16 12.8557 15.9711 12.9134 15.9134C12.9711 15.8557 13 15.782 13 15.6923V2.99999H2.99997ZM5.40385 13.25C5.40385 13.4628 5.47564 13.641 5.61922 13.7846C5.76281 13.9282 5.94101 14 6.15382 14C6.36664 14 6.54484 13.9282 6.68842 13.7846C6.83202 13.641 6.90382 13.4628 6.90382 13.25V5.74997C6.90382 5.53715 6.83202 5.35895 6.68842 5.21537C6.54484 5.07178 6.36664 4.99999 6.15382 4.99999C5.94101 4.99999 5.76281 5.07178 5.61922 5.21537C5.47564 5.35895 5.40385 5.53715 5.40385 5.74997V13.25ZM9.09613 13.25C9.09613 13.4628 9.16792 13.641 9.31152 13.7846C9.45511 13.9282 9.63331 14 9.84613 14C10.0589 14 10.2371 13.9282 10.3807 13.7846C10.5243 13.641 10.5961 13.4628 10.5961 13.25V5.74997C10.5961 5.53715 10.5243 5.35895 10.3807 5.21537C10.2371 5.07178 10.0589 4.99999 9.84613 4.99999C9.63331 4.99999 9.45511 5.07178 9.31152 5.21537C9.16792 5.35895 9.09613 5.53715 9.09613 5.74997V13.25ZM2.99997 2.99999V15.6923C2.99997 15.782 3.02883 15.8557 3.08652 15.9134C3.14423 15.9711 3.21795 16 3.3077 16H2.99997V2.99999Z" fill="white"/>
</svg>
