<svg width="20" height="18" viewBox="0 0 20 18" fill="none" xmlns="http://www.w3.org/2000/svg">
<path d="M2.3077 17.5C1.80257 17.5 1.375 17.325 1.025 16.975C0.675 16.625 0.5 16.1974 0.5 15.6923V5.30773C0.5 4.80259 0.675 4.37503 1.025 4.02503C1.375 3.67503 1.80257 3.50003 2.3077 3.50003H6.5V1.80775C6.5 1.30263 6.675 0.875076 7.025 0.525076C7.375 0.175076 7.80257 7.62939e-05 8.3077 7.62939e-05H11.6923C12.1974 7.62939e-05 12.625 0.175076 12.975 0.525076C13.325 0.875076 13.5 1.30263 13.5 1.80775V3.50003H17.6923C18.1974 3.50003 18.625 3.67503 18.975 4.02503C19.325 4.37503 19.5 4.80259 19.5 5.30773V15.6923C19.5 16.1974 19.325 16.625 18.975 16.975C18.625 17.325 18.1974 17.5 17.6923 17.5H2.3077ZM2.3077 16H17.6923C17.7692 16 17.8397 15.968 17.9038 15.9039C17.9679 15.8397 18 15.7692 18 15.6923V5.30773C18 5.23079 17.9679 5.16027 17.9038 5.09615C17.8397 5.03205 17.7692 5 17.6923 5H2.3077C2.23077 5 2.16024 5.03205 2.09613 5.09615C2.03202 5.16027 1.99998 5.23079 1.99998 5.30773V15.6923C1.99998 15.7692 2.03202 15.8397 2.09613 15.9039C2.16024 15.968 2.23077 16 2.3077 16ZM7.99998 3.50003H12V1.80775C12 1.73082 11.9679 1.6603 11.9038 1.5962C11.8397 1.53208 11.7692 1.50003 11.6923 1.50003H8.3077C8.23077 1.50003 8.16024 1.53208 8.09613 1.5962C8.03203 1.6603 7.99998 1.73082 7.99998 1.80775V3.50003Z" fill="#1DA1F2"/>
</svg>
