<svg width="16" height="16" viewBox="0 0 16 16" fill="none" xmlns="http://www.w3.org/2000/svg">
<path d="M7.99997 7.69228C7.03749 7.69228 6.21354 7.34958 5.52813 6.66418C4.84271 5.97876 4.5 5.15481 4.5 4.19233C4.5 3.22983 4.84271 2.40588 5.52813 1.72048C6.21354 1.03506 7.03749 0.692352 7.99997 0.692352C8.96246 0.692352 9.78641 1.03506 10.4718 1.72048C11.1572 2.40588 11.5 3.22983 11.5 4.19233C11.5 5.15481 11.1572 5.97876 10.4718 6.66418C9.78641 7.34958 8.96246 7.69228 7.99997 7.69228ZM13.9808 15.3077H2.0192C1.59742 15.3077 1.23877 15.1599 0.943275 14.8644C0.647758 14.5689 0.5 14.2102 0.5 13.7885V13.0846C0.5 12.5949 0.633016 12.1414 0.89905 11.7241C1.16507 11.3068 1.52051 10.9859 1.96537 10.7616C2.95384 10.2769 3.95096 9.91348 4.95672 9.67118C5.96249 9.42888 6.97691 9.30773 7.99997 9.30773C9.02304 9.30773 10.0375 9.42888 11.0432 9.67118C12.049 9.91348 13.0461 10.2769 14.0346 10.7616C14.4794 10.9859 14.8349 11.3068 15.1009 11.7241C15.3669 12.1414 15.5 12.5949 15.5 13.0846V13.7885C15.5 14.2102 15.3522 14.5689 15.0567 14.8644C14.7612 15.1599 14.4025 15.3077 13.9808 15.3077ZM1.99997 13.8077H14V13.0846C14 12.882 13.9413 12.6945 13.824 12.5221C13.7067 12.3497 13.5474 12.209 13.3461 12.1C12.4846 11.6756 11.6061 11.3542 10.7107 11.1356C9.81524 10.917 8.91167 10.8077 7.99997 10.8077C7.08827 10.8077 6.18471 10.917 5.28927 11.1356C4.39384 11.3542 3.51536 11.6756 2.65382 12.1C2.45254 12.209 2.29325 12.3497 2.17595 12.5221C2.05863 12.6945 1.99997 12.882 1.99997 13.0846V13.8077ZM7.99997 6.19233C8.54998 6.19233 9.02081 5.99649 9.41247 5.60483C9.80414 5.21316 9.99998 4.74233 9.99998 4.19233C9.99998 3.64233 9.80414 3.17149 9.41247 2.77983C9.02081 2.38816 8.54998 2.19233 7.99997 2.19233C7.44998 2.19233 6.97914 2.38816 6.58747 2.77983C6.19581 3.17149 5.99997 3.64233 5.99997 4.19233C5.99997 4.74233 6.19581 5.21316 6.58747 5.60483C6.97914 5.99649 7.44998 6.19233 7.99997 6.19233Z" fill="#1DA1F2"/>
</svg>
