<svg width="14" height="10" viewBox="0 0 14 10" fill="none" xmlns="http://www.w3.org/2000/svg">
<path d="M7.97917 9.47656C7.79861 9.29601 7.71195 9.07017 7.71917 8.79906C7.72583 8.52851 7.81944 8.30295 8 8.1224L10.1667 5.95573H1.14583C0.881944 5.95573 0.656111 5.86184 0.468333 5.67406C0.281111 5.48684 0.1875 5.26128 0.1875 4.9974C0.1875 4.73351 0.281111 4.50795 0.468333 4.32073C0.656111 4.13295 0.881944 4.03906 1.14583 4.03906H10.1667L7.97917 1.85156C7.79861 1.67101 7.70833 1.44878 7.70833 1.1849C7.70833 0.921007 7.79861 0.698785 7.97917 0.518229C8.15972 0.323785 8.38195 0.226562 8.64583 0.226562C8.90972 0.226562 9.13889 0.323785 9.33333 0.518229L13.1458 4.33073C13.2292 4.42795 13.2917 4.53212 13.3333 4.64323C13.375 4.75434 13.3958 4.8724 13.3958 4.9974C13.3958 5.1224 13.375 5.24045 13.3333 5.35156C13.2917 5.46267 13.2292 5.56684 13.1458 5.66406L9.3125 9.4974C9.13194 9.67795 8.90972 9.76823 8.64583 9.76823C8.38195 9.76823 8.15972 9.67101 7.97917 9.47656Z" fill="#1DA1F2"/>
</svg>
